# xmcd
#
# Track frame offsets: 
#        150
#        11298
#        22132
#        41921
#        55028
#        65133
#        75202
#        93382
#        110050
#        124807
#        141176
#        157587
#        171473
#        186776
#        197648
#        211424
#        222640
#        234121
#        245675
#        286524
#
# Disc length: 4098 seconds
#
# Revision: 2
# Processed by: cddbd v1.5.2PL0 Copyright (c) Steve Scherf et al.
# Submitted via: ExactAudioCopy v1.1
#
DISCID=19100014
DTITLE=John Lee Hooker - Collection CD3
DYEAR=2010
DGENRE=Blues
TTITLE0=She´s Long, She´s Tall
TTITLE1=Goin´To California
TTITLE2=Half A Stranger
TTITLE3=Unfriendly Woman
TTITLE4=Want Ad Blues
TTITLE5=I Wanna Walk
TTITLE6=Lou Della
TTITLE7=Mama, You Got A Daughter
TTITLE8=Moanin´ Blues
TTITLE9=Process
TTITLE10=New Sally Mae
TTITLE11=The Hobo
TTITLE12=Tupello
TTITLE13=Tennessee Blues
TTITLE14=The Road Is Rough
TTITLE15=This Is Hip
TTITLE16=Wheel And Deal
TTITLE17=Will The Circle Be Unbroken
TTITLE18=Feel Good
TTITLE19=Crawlin´ Kingsnake
EXTD=YEAR: 2010
EXTT0=
EXTT1=
EXTT2=
EXTT3=
EXTT4=
EXTT5=
EXTT6=
EXTT7=
EXTT8=
EXTT9=
EXTT10=
EXTT11=
EXTT12=
EXTT13=
EXTT14=
EXTT15=
EXTT16=
EXTT17=
EXTT18=
EXTT19=
PLAYORDER=
